<?xml version="1.0" encoding="UTF-8" standalone="no"?>
<svg
   xmlns:dc="http://purl.org/dc/elements/1.1/"
   xmlns:cc="http://creativecommons.org/ns#"
   xmlns:rdf="http://www.w3.org/1999/02/22-rdf-syntax-ns#"
   xmlns:svg="http://www.w3.org/2000/svg"
   xmlns="http://www.w3.org/2000/svg"
   xmlns:sodipodi="http://sodipodi.sourceforge.net/DTD/sodipodi-0.dtd"
   xmlns:inkscape="http://www.inkscape.org/namespaces/inkscape"
   viewBox="0 0 587.98126 588.01263"
   height="588.01263"
   width="587.98126"
   xml:space="preserve"
   version="1.1"
   id="svg2"
   inkscape:version="0.48.2 r9819"
   sodipodi:docname="SB_icon_solid.svg"><sodipodi:namedview
     pagecolor="#ffffff"
     bordercolor="#666666"
     borderopacity="1"
     objecttolerance="10"
     gridtolerance="10"
     guidetolerance="10"
     inkscape:pageopacity="0"
     inkscape:pageshadow="2"
     inkscape:window-width="1237"
     inkscape:window-height="758"
     id="namedview13"
     showgrid="false"
     inkscape:zoom="1.0054897"
     inkscape:cx="298.33074"
     inkscape:cy="260.19412"
     inkscape:window-x="0"
     inkscape:window-y="22"
     inkscape:window-maximized="0"
     inkscape:current-layer="svg2"
     fit-margin-top="0"
     fit-margin-left="0"
     fit-margin-right="0"
     fit-margin-bottom="0" /><metadata
     id="metadata8"><rdf:RDF><cc:Work
         rdf:about=""><dc:format>image/svg+xml</dc:format><dc:type
           rdf:resource="http://purl.org/dc/dcmitype/StillImage" /></cc:Work></rdf:RDF></metadata><defs
     id="defs6" /><g
     transform="matrix(1.25,0,0,-1.25,-199.0625,676.50625)"
     id="g10"><g
       transform="scale(0.1,0.1)"
       id="g12"><path
         id="path14"
         style="fill:#737476;fill-opacity:1;fill-rule:nonzero;stroke:none"
         d="m 5106.91,3571.84 c 0,164.52 -124.16,465.61 -577.35,465.61 l -161.42,0 0,-949.19 251.58,0 c 262.89,7.37 487.19,84.86 487.19,483.58"
         inkscape:connector-curvature="0" /><path
         id="path16"
         style="fill:#737476;fill-opacity:1;fill-rule:nonzero;stroke:none"
         d="m 4368.14,1951.5 260.75,0 c 325.92,0 499.75,201.76 499.75,564.95 0,299.49 -177.46,469.84 -452.82,511.33 l -307.68,0 0,-1076.28"
         inkscape:connector-curvature="0" /><path
         id="path18"
         style="fill:#737476;fill-opacity:1;fill-rule:nonzero;stroke:none"
         d="m 4987.11,3027.79 c 267.28,-62.18 495.4,-218.51 495.4,-539.29 0,-419.05 -372.49,-586.66 -664.27,-586.66 l -1002.72,0 0,-1190.34 c 42.7,-2.301 85.68,-3.551 128.95,-3.551 1288.38,0 2334.53,1035.721 2351.83,2319.841 l -1309.19,0"
         inkscape:connector-curvature="0" /><path
         id="path20"
         style="fill:#737476;fill-opacity:1;fill-rule:nonzero;stroke:none"
         d="m 3816.45,4087.11 886.94,0 c 462.51,0 720.15,-232.81 720.15,-484.23 0,-359.77 -229.81,-471.93 -438.38,-514.63 l 1311.19,0 c -15.13,1285.94 -1062.14,2323.8 -2351.88,2323.8 -42.96,0 -85.64,-1.23 -128.02,-3.5 l 0,-1321.44"
         inkscape:connector-curvature="0" /><path
         id="path22"
         style="fill:#737476;fill-opacity:1;fill-rule:nonzero;stroke:none"
         d="m 3755.04,1951.5 296.48,0 0,2085.94 -235.02,0 0,-602.53 -59.66,0 c -27.93,353.87 -220.39,673.6 -636.34,673.6 -263.85,0 -450.09,-173.84 -450.09,-459.42 0,-279.36 105.53,-341.43 620.82,-434.57 453.19,-80.71 639.44,-226.6 639.44,-630.13 0,-406.64 -223.49,-710.84 -673.59,-710.84 -310.41,0 -474.93,161.41 -589.77,161.41 -74.51,0 -77.61,-77.6 -77.61,-130.37 l -49.66,0 0,724.88 -908.07,0 C 1823.07,1596.64 2688.88,800.57 3755.04,715.57 l 0,1235.93"
         inkscape:connector-curvature="0" /><path
         id="path24"
         style="fill:#737476;fill-opacity:1;fill-rule:nonzero;stroke:none"
         d="m 2589.37,2689.94 0,-0.02 0.33,0 c 0,-521.48 307.31,-766.7 679.8,-766.7 298,0 512.17,189.34 512.17,468.71 0,322.84 -167.62,419.06 -524.59,474.94 -487.34,77.6 -717.05,158.31 -717.05,679.79 0,353.87 232.82,611.51 580.46,611.51 319.72,0 440.78,-189.35 546.33,-189.35 71.15,0 86.95,59.09 89.15,116.91 l 0,1318.79 C 2545.23,5308.48 1592.5,4295.55 1592.5,3060.06 c 0,-125.95 10.01,-249.53 29.09,-370.12 l 967.78,0"
         inkscape:connector-curvature="0" /></g></g></svg>